<mxfile host="app.diagrams.net" modified="2024-03-13T10:01:29.794Z" agent="Mozilla/5.0 (Windows NT 10.0; Win64; x64) AppleWebKit/537.36 (KHTML, like Gecko) Chrome/122.0.0.0 Safari/537.36 Edg/122.0.0.0" etag="yf09wPMsf6Nf6qU7NWqE" version="24.0.5" type="device">
  <diagram name="Page-1" id="e7e014a7-5840-1c2e-5031-d8a46d1fe8dd">
    <mxGraphModel dx="2772" dy="888" grid="1" gridSize="10" guides="1" tooltips="1" connect="1" arrows="1" fold="1" page="1" pageScale="1" pageWidth="1169" pageHeight="826" background="none" math="0" shadow="0">
      <root>
        <mxCell id="0" />
        <mxCell id="1" parent="0" />
        <mxCell id="S5-t4UTiQ7tP200tpYEm-41" value="" style="ellipse;html=1;shape=startState;fillColor=#000000;strokeColor=#ff0000;" parent="1" vertex="1">
          <mxGeometry x="115" y="50" width="40" height="40" as="geometry" />
        </mxCell>
        <mxCell id="S5-t4UTiQ7tP200tpYEm-44" value="Приложение запустилось" style="html=1;verticalAlign=bottom;endArrow=block;curved=0;rounded=0;exitX=0.5;exitY=1;exitDx=0;exitDy=0;entryX=0.5;entryY=0;entryDx=0;entryDy=0;" parent="1" source="S5-t4UTiQ7tP200tpYEm-41" target="S5-t4UTiQ7tP200tpYEm-45" edge="1">
          <mxGeometry x="0.2" y="15" width="80" relative="1" as="geometry">
            <mxPoint x="270" y="30" as="sourcePoint" />
            <mxPoint x="271.84000000000015" y="132.88" as="targetPoint" />
            <Array as="points" />
            <mxPoint as="offset" />
          </mxGeometry>
        </mxCell>
        <mxCell id="S5-t4UTiQ7tP200tpYEm-45" value="Ожидание выбора входа в систему" style="rounded=1;whiteSpace=wrap;html=1;" parent="1" vertex="1">
          <mxGeometry x="75" y="140" width="120" height="60" as="geometry" />
        </mxCell>
        <mxCell id="S5-t4UTiQ7tP200tpYEm-57" value="" style="html=1;verticalAlign=bottom;endArrow=block;curved=0;rounded=0;exitX=0.5;exitY=1;exitDx=0;exitDy=0;entryX=0.5;entryY=0;entryDx=0;entryDy=0;" parent="1" source="S5-t4UTiQ7tP200tpYEm-45" target="S5-t4UTiQ7tP200tpYEm-58" edge="1">
          <mxGeometry x="0.5" y="70" width="80" relative="1" as="geometry">
            <mxPoint x="135" y="210" as="sourcePoint" />
            <mxPoint x="234.5" y="250" as="targetPoint" />
            <mxPoint as="offset" />
          </mxGeometry>
        </mxCell>
        <mxCell id="S5-t4UTiQ7tP200tpYEm-102" value="Выбран вход без авторизации и регистрации" style="edgeLabel;html=1;align=center;verticalAlign=middle;resizable=0;points=[];" parent="S5-t4UTiQ7tP200tpYEm-57" vertex="1" connectable="0">
          <mxGeometry x="-0.0911" y="1" relative="1" as="geometry">
            <mxPoint as="offset" />
          </mxGeometry>
        </mxCell>
        <mxCell id="S5-t4UTiQ7tP200tpYEm-58" value="Вход без авторизации" style="rounded=1;whiteSpace=wrap;html=1;" parent="1" vertex="1">
          <mxGeometry x="75" y="260" width="120" height="60" as="geometry" />
        </mxCell>
        <mxCell id="S5-t4UTiQ7tP200tpYEm-59" value="" style="html=1;verticalAlign=bottom;endArrow=block;curved=0;rounded=0;exitX=0.5;exitY=1;exitDx=0;exitDy=0;entryX=0.5;entryY=0;entryDx=0;entryDy=0;" parent="1" source="S5-t4UTiQ7tP200tpYEm-58" target="S5-t4UTiQ7tP200tpYEm-63" edge="1">
          <mxGeometry x="0.5" y="70" width="80" relative="1" as="geometry">
            <mxPoint x="234.5" y="310" as="sourcePoint" />
            <mxPoint x="234.5" y="350" as="targetPoint" />
            <mxPoint as="offset" />
          </mxGeometry>
        </mxCell>
        <mxCell id="S5-t4UTiQ7tP200tpYEm-62" value="Открылась домашняя страница" style="edgeLabel;html=1;align=center;verticalAlign=middle;resizable=0;points=[];" parent="S5-t4UTiQ7tP200tpYEm-59" vertex="1" connectable="0">
          <mxGeometry x="-0.36" y="-1" relative="1" as="geometry">
            <mxPoint x="1" y="4" as="offset" />
          </mxGeometry>
        </mxCell>
        <mxCell id="S5-t4UTiQ7tP200tpYEm-69" value="" style="edgeStyle=orthogonalEdgeStyle;rounded=0;orthogonalLoop=1;jettySize=auto;html=1;exitX=0.5;exitY=1;exitDx=0;exitDy=0;" parent="1" source="u8zHuBnqQxdjBVgnr40f-3" target="S5-t4UTiQ7tP200tpYEm-68" edge="1">
          <mxGeometry relative="1" as="geometry">
            <mxPoint x="-150" y="370" as="sourcePoint" />
          </mxGeometry>
        </mxCell>
        <mxCell id="S5-t4UTiQ7tP200tpYEm-70" value="Выбрана кнопка создания нового счёта" style="edgeLabel;html=1;align=center;verticalAlign=middle;resizable=0;points=[];" parent="S5-t4UTiQ7tP200tpYEm-69" vertex="1" connectable="0">
          <mxGeometry x="0.224" y="3" relative="1" as="geometry">
            <mxPoint x="-3" y="-12" as="offset" />
          </mxGeometry>
        </mxCell>
        <mxCell id="S5-t4UTiQ7tP200tpYEm-63" value="Ожидание выбора пользователя" style="rounded=1;whiteSpace=wrap;html=1;" parent="1" vertex="1">
          <mxGeometry x="80" y="363" width="110" height="57" as="geometry" />
        </mxCell>
        <mxCell id="S5-t4UTiQ7tP200tpYEm-67" style="edgeStyle=orthogonalEdgeStyle;rounded=0;orthogonalLoop=1;jettySize=auto;html=1;exitX=0.5;exitY=1;exitDx=0;exitDy=0;" parent="1" source="S5-t4UTiQ7tP200tpYEm-63" target="S5-t4UTiQ7tP200tpYEm-63" edge="1">
          <mxGeometry relative="1" as="geometry" />
        </mxCell>
        <mxCell id="S5-t4UTiQ7tP200tpYEm-72" value="" style="edgeStyle=orthogonalEdgeStyle;rounded=0;orthogonalLoop=1;jettySize=auto;html=1;" parent="1" source="S5-t4UTiQ7tP200tpYEm-68" target="S5-t4UTiQ7tP200tpYEm-71" edge="1">
          <mxGeometry relative="1" as="geometry" />
        </mxCell>
        <mxCell id="S5-t4UTiQ7tP200tpYEm-73" value="Страница открылась" style="edgeLabel;html=1;align=center;verticalAlign=middle;resizable=0;points=[];" parent="S5-t4UTiQ7tP200tpYEm-72" vertex="1" connectable="0">
          <mxGeometry x="-0.3257" y="-1" relative="1" as="geometry">
            <mxPoint as="offset" />
          </mxGeometry>
        </mxCell>
        <mxCell id="S5-t4UTiQ7tP200tpYEm-68" value="Открытие страницы для создания счёта" style="whiteSpace=wrap;html=1;rounded=1;" parent="1" vertex="1">
          <mxGeometry x="-200" y="470" width="120" height="60" as="geometry" />
        </mxCell>
        <mxCell id="S5-t4UTiQ7tP200tpYEm-75" value="" style="edgeStyle=orthogonalEdgeStyle;rounded=0;orthogonalLoop=1;jettySize=auto;html=1;" parent="1" source="S5-t4UTiQ7tP200tpYEm-71" target="S5-t4UTiQ7tP200tpYEm-74" edge="1">
          <mxGeometry relative="1" as="geometry" />
        </mxCell>
        <mxCell id="S5-t4UTiQ7tP200tpYEm-76" value="Поля формы&amp;nbsp;&lt;div&gt;заполнены&lt;/div&gt;" style="edgeLabel;html=1;align=center;verticalAlign=middle;resizable=0;points=[];" parent="S5-t4UTiQ7tP200tpYEm-75" vertex="1" connectable="0">
          <mxGeometry x="-0.25" relative="1" as="geometry">
            <mxPoint x="15" as="offset" />
          </mxGeometry>
        </mxCell>
        <mxCell id="S5-t4UTiQ7tP200tpYEm-71" value="Ожидание заполнения формы" style="whiteSpace=wrap;html=1;rounded=1;" parent="1" vertex="1">
          <mxGeometry x="-200" y="580" width="120" height="60" as="geometry" />
        </mxCell>
        <mxCell id="S5-t4UTiQ7tP200tpYEm-78" value="" style="edgeStyle=orthogonalEdgeStyle;rounded=0;orthogonalLoop=1;jettySize=auto;html=1;entryX=0.198;entryY=1.063;entryDx=0;entryDy=0;entryPerimeter=0;" parent="1" source="S5-t4UTiQ7tP200tpYEm-74" target="S5-t4UTiQ7tP200tpYEm-63" edge="1">
          <mxGeometry relative="1" as="geometry">
            <mxPoint x="90" y="530" as="targetPoint" />
            <Array as="points">
              <mxPoint x="102" y="530" />
              <mxPoint x="102" y="530" />
            </Array>
          </mxGeometry>
        </mxCell>
        <mxCell id="S5-t4UTiQ7tP200tpYEm-80" value="Данные сохранены,&amp;nbsp;&lt;div&gt;открыта домашняя страница&lt;/div&gt;" style="edgeLabel;html=1;align=center;verticalAlign=middle;resizable=0;points=[];" parent="S5-t4UTiQ7tP200tpYEm-78" vertex="1" connectable="0">
          <mxGeometry x="-0.0783" relative="1" as="geometry">
            <mxPoint x="-20" y="2" as="offset" />
          </mxGeometry>
        </mxCell>
        <mxCell id="S5-t4UTiQ7tP200tpYEm-74" value="Сохранение счёта" style="whiteSpace=wrap;html=1;rounded=1;" parent="1" vertex="1">
          <mxGeometry x="30" y="580" width="120" height="60" as="geometry" />
        </mxCell>
        <mxCell id="S5-t4UTiQ7tP200tpYEm-82" value="" style="edgeStyle=orthogonalEdgeStyle;rounded=0;orthogonalLoop=1;jettySize=auto;html=1;exitX=0;exitY=0.5;exitDx=0;exitDy=0;entryX=1;entryY=0.5;entryDx=0;entryDy=0;" parent="1" source="S5-t4UTiQ7tP200tpYEm-63" target="u8zHuBnqQxdjBVgnr40f-3" edge="1">
          <mxGeometry relative="1" as="geometry">
            <mxPoint x="-190" y="320" as="sourcePoint" />
            <mxPoint x="-50" y="370" as="targetPoint" />
          </mxGeometry>
        </mxCell>
        <mxCell id="S5-t4UTiQ7tP200tpYEm-83" value="Переход на&amp;nbsp;&lt;div&gt;страницу транзакций&lt;/div&gt;" style="edgeLabel;html=1;align=center;verticalAlign=middle;resizable=0;points=[];" parent="S5-t4UTiQ7tP200tpYEm-82" vertex="1" connectable="0">
          <mxGeometry x="-0.355" y="-2" relative="1" as="geometry">
            <mxPoint x="-28" y="2" as="offset" />
          </mxGeometry>
        </mxCell>
        <mxCell id="S5-t4UTiQ7tP200tpYEm-85" value="" style="edgeStyle=orthogonalEdgeStyle;rounded=0;orthogonalLoop=1;jettySize=auto;html=1;exitX=1;exitY=0.5;exitDx=0;exitDy=0;" parent="1" source="S5-t4UTiQ7tP200tpYEm-63" target="S5-t4UTiQ7tP200tpYEm-84" edge="1">
          <mxGeometry relative="1" as="geometry">
            <mxPoint x="510" y="393" as="sourcePoint" />
          </mxGeometry>
        </mxCell>
        <mxCell id="S5-t4UTiQ7tP200tpYEm-86" value="Выбор кнопки создания&lt;div&gt;транзакции&lt;/div&gt;" style="edgeLabel;html=1;align=center;verticalAlign=middle;resizable=0;points=[];" parent="S5-t4UTiQ7tP200tpYEm-85" vertex="1" connectable="0">
          <mxGeometry x="-0.165" y="-2" relative="1" as="geometry">
            <mxPoint x="8" y="-3" as="offset" />
          </mxGeometry>
        </mxCell>
        <mxCell id="S5-t4UTiQ7tP200tpYEm-88" value="" style="edgeStyle=orthogonalEdgeStyle;rounded=0;orthogonalLoop=1;jettySize=auto;html=1;" parent="1" source="S5-t4UTiQ7tP200tpYEm-84" target="S5-t4UTiQ7tP200tpYEm-87" edge="1">
          <mxGeometry relative="1" as="geometry" />
        </mxCell>
        <mxCell id="S5-t4UTiQ7tP200tpYEm-89" value="Страница открыта" style="edgeLabel;html=1;align=center;verticalAlign=middle;resizable=0;points=[];" parent="S5-t4UTiQ7tP200tpYEm-88" vertex="1" connectable="0">
          <mxGeometry x="-0.4933" relative="1" as="geometry">
            <mxPoint x="13" as="offset" />
          </mxGeometry>
        </mxCell>
        <mxCell id="S5-t4UTiQ7tP200tpYEm-84" value="Открытие страницы для создания новой транзакци" style="whiteSpace=wrap;html=1;rounded=1;" parent="1" vertex="1">
          <mxGeometry x="360" y="363" width="120" height="60" as="geometry" />
        </mxCell>
        <mxCell id="S5-t4UTiQ7tP200tpYEm-91" value="" style="edgeStyle=orthogonalEdgeStyle;rounded=0;orthogonalLoop=1;jettySize=auto;html=1;" parent="1" source="S5-t4UTiQ7tP200tpYEm-87" target="S5-t4UTiQ7tP200tpYEm-90" edge="1">
          <mxGeometry relative="1" as="geometry" />
        </mxCell>
        <mxCell id="S5-t4UTiQ7tP200tpYEm-92" value="Категория выбрана" style="edgeLabel;html=1;align=center;verticalAlign=middle;resizable=0;points=[];" parent="S5-t4UTiQ7tP200tpYEm-91" vertex="1" connectable="0">
          <mxGeometry x="0.01" y="-1" relative="1" as="geometry">
            <mxPoint as="offset" />
          </mxGeometry>
        </mxCell>
        <mxCell id="S5-t4UTiQ7tP200tpYEm-87" value="Ожидание выбора категории" style="whiteSpace=wrap;html=1;rounded=1;" parent="1" vertex="1">
          <mxGeometry x="540" y="460" width="120" height="60" as="geometry" />
        </mxCell>
        <mxCell id="S5-t4UTiQ7tP200tpYEm-94" value="" style="edgeStyle=orthogonalEdgeStyle;rounded=0;orthogonalLoop=1;jettySize=auto;html=1;" parent="1" source="S5-t4UTiQ7tP200tpYEm-90" target="S5-t4UTiQ7tP200tpYEm-93" edge="1">
          <mxGeometry relative="1" as="geometry" />
        </mxCell>
        <mxCell id="S5-t4UTiQ7tP200tpYEm-95" value="Поля формы заполнены" style="edgeLabel;html=1;align=center;verticalAlign=middle;resizable=0;points=[];" parent="S5-t4UTiQ7tP200tpYEm-94" vertex="1" connectable="0">
          <mxGeometry x="-0.05" y="1" relative="1" as="geometry">
            <mxPoint as="offset" />
          </mxGeometry>
        </mxCell>
        <mxCell id="S5-t4UTiQ7tP200tpYEm-90" value="Ожидание заполнения полей формы" style="whiteSpace=wrap;html=1;rounded=1;" parent="1" vertex="1">
          <mxGeometry x="540" y="580" width="120" height="60" as="geometry" />
        </mxCell>
        <mxCell id="S5-t4UTiQ7tP200tpYEm-97" value="" style="edgeStyle=orthogonalEdgeStyle;rounded=0;orthogonalLoop=1;jettySize=auto;html=1;entryX=0.896;entryY=0.965;entryDx=0;entryDy=0;exitX=0.015;exitY=0.64;exitDx=0;exitDy=0;exitPerimeter=0;entryPerimeter=0;" parent="1" source="S5-t4UTiQ7tP200tpYEm-93" target="S5-t4UTiQ7tP200tpYEm-63" edge="1">
          <mxGeometry relative="1" as="geometry">
            <mxPoint x="450" y="423" as="targetPoint" />
            <Array as="points">
              <mxPoint x="179" y="608" />
            </Array>
          </mxGeometry>
        </mxCell>
        <mxCell id="S5-t4UTiQ7tP200tpYEm-99" value="Данные сохранены" style="edgeLabel;html=1;align=center;verticalAlign=middle;resizable=0;points=[];" parent="S5-t4UTiQ7tP200tpYEm-97" vertex="1" connectable="0">
          <mxGeometry x="-0.1775" y="1" relative="1" as="geometry">
            <mxPoint x="1" y="-43" as="offset" />
          </mxGeometry>
        </mxCell>
        <mxCell id="S5-t4UTiQ7tP200tpYEm-93" value="Сохранение транзакции" style="whiteSpace=wrap;html=1;rounded=1;" parent="1" vertex="1">
          <mxGeometry x="260" y="580" width="120" height="60" as="geometry" />
        </mxCell>
        <mxCell id="u8zHuBnqQxdjBVgnr40f-3" value="Откытие страницы транзакций" style="whiteSpace=wrap;html=1;rounded=1;" vertex="1" parent="1">
          <mxGeometry x="-200" y="363" width="120" height="60" as="geometry" />
        </mxCell>
      </root>
    </mxGraphModel>
  </diagram>
</mxfile>
